<svg enable-background="new 0 0 1024 1024" viewBox="0 0 1024 1024" xmlns="http://www.w3.org/2000/svg"><circle cx="512" cy="512" fill="#fd7622" r="512"/><path d="m576 512.1c0 19-3.5 37.2-9.8 54-16.8 6.3-35 9.8-54.1 9.8h-.2c-19 0-37.2-3.5-54-9.8-6.3-16.8-9.8-35-9.8-54.1v-.2c0-19 3.5-37.2 9.8-54 16.8-6.3 35-9.8 54.1-9.8h.2c19 0 37.3 3.5 54.1 9.8 6.3 16.8 9.8 35 9.8 54v.3zm188.4-42.8h-149.4l105.7-105.7c-8.3-11.7-17.6-22.6-27.7-32.7-10.1-10.1-21-19.3-32.7-27.6l-105.6 105.7v-149.4c-13.8-2.3-28-3.6-42.5-3.6h-.3c-14.5 0-28.7 1.2-42.5 3.6v149.4l-105.7-105.7c-11.7 8.3-22.6 17.6-32.7 27.6-10.1 10.1-19.3 21-27.6 32.7l105.6 105.7h-149.4s-3.6 28.1-3.6 42.6v.2c0 14.5 1.2 28.7 3.6 42.6h149.4l-105.7 105.6c16.6 23.3 37 43.7 60.3 60.3l105.7-105.6v149.4c13.8 2.3 28 3.5 42.5 3.6h.4c14.5 0 28.7-1.2 42.5-3.6v-149.4l105.7 105.7c11.7-8.3 22.6-17.5 32.7-27.6 10.1-10.1 19.3-21 27.6-32.7l-105.7-105.7h149.4c2.3-13.8 3.5-28 3.6-42.5v-.4c0-14.5-1.2-28.6-3.6-42.5z" fill="#fff"/></svg>